<svg xmlns="http://www.w3.org/2000/svg" width="300" height="300" viewBox="0 0 70 70" style="width: 100%; height: 100%;"><desc>Made with illustrio</desc>
  
<g class="shifted" transform="matrix(1,0,0,1,1.5,1.5)"><g fill="none" fill-rule="evenodd" stroke="none" style="fill-opacity: 0.7;" class="secondary-fill">
    
    
    <path fill="none" d="M16.0588235,0.149132941 C14.0218758,0.149132941 12.3529412,1.81806471 12.3529412,3.85501529 C12.3529412,5.60854329 13.5911642,7.07938741 15.2352941,7.45795647 L15.2352941,12.57928 C13.7066675,12.7994876 12.3735286,13.6158157 11.4779412,14.7925153 L7.18014706,12.14178 C7.33032794,11.7402196 7.41176471,11.3068167 7.41176471,10.8550153 C7.41176471,8.81806471 5.74283006,7.14913294 3.70588235,7.14913294 C1.66893465,7.14913294 0,8.81806471 0,10.8550153 C0,12.8919618 1.66893465,14.5608976 3.70588235,14.5608976 C4.69825876,14.5608976 5.598775,14.1609588 6.26654412,13.5186182 L10.6801471,16.2336918 C10.4400186,16.8667734 10.2941176,17.5509201 10.2941176,18.26678 C10.2941176,18.9783708 10.4427379,19.6570685 10.6801471,20.2870006 L6.25367647,23.0020741 C5.58719824,22.36717 4.69173435,21.9726624 3.70588235,21.9726624 C1.66893465,21.9726624 0,23.6416271 0,25.6785447 C0,27.7155035 1.66893465,29.3844271 3.70588235,29.3844271 C5.74283006,29.3844271 7.41176471,27.7155035 7.41176471,25.6785447 C7.41176471,25.2210675 7.32107806,24.7846974 7.16727941,24.3789124 L11.4779412,21.7281771 C12.3735512,22.9092426 13.7031242,23.7335618 15.2352941,23.95428 L15.2352941,29.0756035 C13.5911642,29.4541771 12.3529412,30.9250414 12.3529412,32.6785447 C12.3529412,34.7155035 14.0218758,36.3844271 16.0588235,36.3844271 C18.0957712,36.3844271 19.7647059,34.7155035 19.7647059,32.6785447 C19.7647059,30.9250414 18.5264829,29.4541771 16.8823529,29.0756035 L16.8823529,23.95428 C18.4145228,23.7335618 19.7440958,22.9092426 20.6397059,21.7281771 L24.9503676,24.3789124 C24.796569,24.7846974 24.7058824,25.2210675 24.7058824,25.6785447 C24.7058824,27.7155035 26.374817,29.3844271 28.4117647,29.3844271 C30.4487124,29.3844271 32.1176471,27.7155035 32.1176471,25.6785447 C32.1176471,23.6416271 30.4487124,21.9726624 28.4117647,21.9726624 C27.4259127,21.9726624 26.5304488,22.36717 25.8639706,23.0020741 L21.4375,20.2870006 C21.6749091,19.6570685 21.8235294,18.9783708 21.8235294,18.26678 C21.8235294,17.5509201 21.6776284,16.8667734 21.4375,16.2336918 L25.8511029,13.5186182 C26.5188721,14.1609588 27.4193883,14.5608976 28.4117647,14.5608976 C30.4487124,14.5608976 32.1176471,12.8919618 32.1176471,10.8550153 C32.1176471,8.81806471 30.4487124,7.14913294 28.4117647,7.14913294 C26.374817,7.14913294 24.7058824,8.81806471 24.7058824,10.8550153 C24.7058824,11.3068167 24.7873191,11.7402196 24.9375,12.14178 L20.6397059,14.7925153 C19.7441185,13.6158157 18.4109796,12.7994876 16.8823529,12.57928 L16.8823529,7.45795647 C18.5264829,7.07938741 19.7647059,5.60854329 19.7647059,3.85501529 C19.7647059,1.81806471 18.0957712,0.149132941 16.0588235,0.149132941 Z" transform="translate(18.941 16.733)" stroke="none" style="fill-opacity: 0.7;" class="secondary-fill"></path>
  </g></g><g class="base"><g fill="none" fill-rule="evenodd" stroke="none" class="main-stroke">
    
    
    <path fill="none" d="M16.0588235,0.149132941 C14.0218758,0.149132941 12.3529412,1.81806471 12.3529412,3.85501529 C12.3529412,5.60854329 13.5911642,7.07938741 15.2352941,7.45795647 L15.2352941,12.57928 C13.7066675,12.7994876 12.3735286,13.6158157 11.4779412,14.7925153 L7.18014706,12.14178 C7.33032794,11.7402196 7.41176471,11.3068167 7.41176471,10.8550153 C7.41176471,8.81806471 5.74283006,7.14913294 3.70588235,7.14913294 C1.66893465,7.14913294 0,8.81806471 0,10.8550153 C0,12.8919618 1.66893465,14.5608976 3.70588235,14.5608976 C4.69825876,14.5608976 5.598775,14.1609588 6.26654412,13.5186182 L10.6801471,16.2336918 C10.4400186,16.8667734 10.2941176,17.5509201 10.2941176,18.26678 C10.2941176,18.9783708 10.4427379,19.6570685 10.6801471,20.2870006 L6.25367647,23.0020741 C5.58719824,22.36717 4.69173435,21.9726624 3.70588235,21.9726624 C1.66893465,21.9726624 0,23.6416271 0,25.6785447 C0,27.7155035 1.66893465,29.3844271 3.70588235,29.3844271 C5.74283006,29.3844271 7.41176471,27.7155035 7.41176471,25.6785447 C7.41176471,25.2210675 7.32107806,24.7846974 7.16727941,24.3789124 L11.4779412,21.7281771 C12.3735512,22.9092426 13.7031242,23.7335618 15.2352941,23.95428 L15.2352941,29.0756035 C13.5911642,29.4541771 12.3529412,30.9250414 12.3529412,32.6785447 C12.3529412,34.7155035 14.0218758,36.3844271 16.0588235,36.3844271 C18.0957712,36.3844271 19.7647059,34.7155035 19.7647059,32.6785447 C19.7647059,30.9250414 18.5264829,29.4541771 16.8823529,29.0756035 L16.8823529,23.95428 C18.4145228,23.7335618 19.7440958,22.9092426 20.6397059,21.7281771 L24.9503676,24.3789124 C24.796569,24.7846974 24.7058824,25.2210675 24.7058824,25.6785447 C24.7058824,27.7155035 26.374817,29.3844271 28.4117647,29.3844271 C30.4487124,29.3844271 32.1176471,27.7155035 32.1176471,25.6785447 C32.1176471,23.6416271 30.4487124,21.9726624 28.4117647,21.9726624 C27.4259127,21.9726624 26.5304488,22.36717 25.8639706,23.0020741 L21.4375,20.2870006 C21.6749091,19.6570685 21.8235294,18.9783708 21.8235294,18.26678 C21.8235294,17.5509201 21.6776284,16.8667734 21.4375,16.2336918 L25.8511029,13.5186182 C26.5188721,14.1609588 27.4193883,14.5608976 28.4117647,14.5608976 C30.4487124,14.5608976 32.1176471,12.8919618 32.1176471,10.8550153 C32.1176471,8.81806471 30.4487124,7.14913294 28.4117647,7.14913294 C26.374817,7.14913294 24.7058824,8.81806471 24.7058824,10.8550153 C24.7058824,11.3068167 24.7873191,11.7402196 24.9375,12.14178 L20.6397059,14.7925153 C19.7441185,13.6158157 18.4109796,12.7994876 16.8823529,12.57928 L16.8823529,7.45795647 C18.5264829,7.07938741 19.7647059,5.60854329 19.7647059,3.85501529 C19.7647059,1.81806471 18.0957712,0.149132941 16.0588235,0.149132941 Z" transform="translate(18.941 16.733)" stroke="none" class="main-stroke"></path>
  </g></g><style>
          .main-stroke {stroke: <%= primaryColor %>;}
          .secondary-fill {fill: #e5e5e5;}
        </style></svg>